<?xml version="1.0" encoding="UTF-8" standalone="no"?>
<svg
   xmlns:dc="http://purl.org/dc/elements/1.1/"
   xmlns:cc="http://creativecommons.org/ns#"
   xmlns:rdf="http://www.w3.org/1999/02/22-rdf-syntax-ns#"
   xmlns:svg="http://www.w3.org/2000/svg"
   xmlns="http://www.w3.org/2000/svg"
   width="14"
   height="14"
   viewBox="0 0 14 14"
   fill="none"
   version="1.1"
   id="svg4">
  <metadata
     id="metadata10">
    <rdf:RDF>
      <cc:Work
         rdf:about="">
        <dc:format>image/svg+xml</dc:format>
        <dc:type
           rdf:resource="http://purl.org/dc/dcmitype/StillImage" />
        <dc:title></dc:title>
      </cc:Work>
    </rdf:RDF>
  </metadata>
  <defs
     id="defs8" />
  <g
     id="g836"
     transform="translate(-1,-1)">
    <path
       fill-rule="evenodd"
       clip-rule="evenodd"
       d="M 2,2 H 8 V 5.5 L 8.5,6 H 12 v 1 h 1 V 4.8 L 12.85,4.44 9.57,1.14 9.22,1 H 1.5 L 1,1.5 v 13 L 1.5,15 H 5 V 14 H 2 Z m 7,0 3,3 H 9 Z m 5.5,6 h -8 L 6,8.5 v 6 L 6.5,15 h 8 L 15,14.5 v -6 z M 14,9 v 4 L 12.37,11.4 H 11.66 L 10.5,12.57 8.37,10.44 H 7.66 L 7,11.1 V 9 Z m -2.8,4.27 0.81,-0.81 1.54,1.54 H 11.93 Z M 7,14 v -1.49 l 1,-1 2.52,2.49 z m 5.5,-3.5 C 12.7761,10.5 13,10.2761 13,10 13,9.72386 12.7761,9.5 12.5,9.5 12.2239,9.5 12,9.72386 12,10 c 0,0.2761 0.2239,0.5 0.5,0.5 z"
       fill="#C5C5C5"
       id="path2"
       style="fill:#9b9e94;fill-opacity:1" />
  </g>
</svg>
