<?xml version="1.0" encoding="UTF-8" standalone="no"?>
<svg
   xmlns:dc="http://purl.org/dc/elements/1.1/"
   xmlns:cc="http://creativecommons.org/ns#"
   xmlns:rdf="http://www.w3.org/1999/02/22-rdf-syntax-ns#"
   xmlns:svg="http://www.w3.org/2000/svg"
   xmlns="http://www.w3.org/2000/svg"
   width="14"
   height="14"
   viewBox="0 0 14 14"
   fill="none"
   version="1.1"
   id="svg4">
  <metadata
     id="metadata10">
    <rdf:RDF>
      <cc:Work
         rdf:about="">
        <dc:format>image/svg+xml</dc:format>
        <dc:type
           rdf:resource="http://purl.org/dc/dcmitype/StillImage" />
        <dc:title></dc:title>
      </cc:Work>
    </rdf:RDF>
  </metadata>
  <defs
     id="defs8" />
  <g
     id="g836"
     transform="translate(-1.0000486,-1)">
    <path
       fill-rule="evenodd"
       clip-rule="evenodd"
       d="M 14.0001,10 V 1.5 L 13.5001,1 H 3.74009 C 3.51074,1.00254 3.28375,1.04658 3.07009,1.13 2.85473,1.22571 2.66064,1.36346 2.49922,1.53518 2.33781,1.7069 2.21231,1.90913 2.13009,2.13 2.0483,2.3267 2.0042,2.53701 2.00009,2.75 v 9.5 c -0.0024,0.2298 0.04182,0.4578 0.13,0.67 0.17715,0.4273 0.51456,0.7683 0.94,0.95 0.21366,0.0834 0.44065,0.1275 0.67,0.13 h 0.26 v -1 h -0.26 c -0.09978,3e-4 -0.19853,-0.0201 -0.29,-0.06 -0.18104,-0.0751 -0.3249,-0.219 -0.4,-0.4 -0.03195,-0.0934 -0.04883,-0.1913 -0.05,-0.29 v -0.5 c 0.00117,-0.0987 0.01805,-0.1966 0.05,-0.29 0.0751,-0.181 0.21896,-0.3249 0.4,-0.4 0.0901,-0.0393 0.18726,-0.0597 0.28552,-0.06 h 0.00448 0.26 9.00001 v 2 H 9.00009 v 1 h 4.50001 l 0.5,-0.5 V 11 Z M 4.00009,10 V 2 h 9.00001 v 8 z m 1,-7 h 1 v 1 h -1 z m 0,2 h 1 v 1 h -1 z m 1,2 h -1 v 1 h 1 z m 0.5,6.49 -1.22,1.51 h -0.28 v -3 h 3 v 3 h -0.28 z"
       fill="#C5C5C5"
       id="path2"
       style="fill:#9b9e94;fill-opacity:1" />
  </g>
</svg>
